<?xml version="1.0" encoding="UTF-8" standalone="no"?><svg xmlns="http://www.w3.org/2000/svg" xmlns:xlink="http://www.w3.org/1999/xlink" contentStyleType="text/css" height="1531px" preserveAspectRatio="none" style="width:946px;height:1531px;background:#FFFFFF;" version="1.1" viewBox="0 0 946 1531" width="946px" zoomAndPan="magnify"><defs/><g><line style="stroke:#181818;stroke-width:1.5;" x1="41" x2="41" y1="63.4063" y2="83.4063"/><rect fill="#F1F1F1" height="33.4063" style="stroke:#181818;stroke-width:1.5;" width="62" x="10" y="83.4063"/><text fill="#000000" font-family="sans-serif" font-size="12" lengthAdjust="spacing" textLength="42" x="20" y="104.2695">Здание</text><line style="stroke:#181818;stroke-width:1.5;" x1="41" x2="51" y1="148.5156" y2="148.5156"/><rect fill="#F1F1F1" height="33.4063" style="stroke:#181818;stroke-width:1.5;" width="90" x="51" y="131.8125"/><text fill="#000000" font-family="sans-serif" font-size="12" lengthAdjust="spacing" textLength="70" x="61" y="152.6758">Назначение</text><line style="stroke:#181818;stroke-width:1.5;" x1="41" x2="51" y1="196.9219" y2="196.9219"/><rect fill="#F1F1F1" height="33.4063" style="stroke:#181818;stroke-width:1.5;" width="83" x="51" y="180.2188"/><text fill="#000000" font-family="sans-serif" font-size="12" lengthAdjust="spacing" textLength="63" x="61" y="201.082">Фундамент</text><line style="stroke:#181818;stroke-width:1.5;" x1="92.5" x2="102.5" y1="245.3281" y2="245.3281"/><rect fill="#F1F1F1" height="33.4063" style="stroke:#181818;stroke-width:1.5;" width="54" x="102.5" y="228.625"/><text fill="#000000" font-family="sans-serif" font-size="12" lengthAdjust="spacing" textLength="34" x="112.5" y="249.4883">Бетон</text><line style="stroke:#181818;stroke-width:1.5;" x1="92.5" x2="102.5" y1="293.7344" y2="293.7344"/><rect fill="#F1F1F1" height="33.4063" style="stroke:#181818;stroke-width:1.5;" width="68" x="102.5" y="277.0313"/><text fill="#000000" font-family="sans-serif" font-size="12" lengthAdjust="spacing" textLength="48" x="112.5" y="297.8945">Кирпичи</text><line style="stroke:#181818;stroke-width:1.5;" x1="92.5" x2="102.5" y1="342.1406" y2="342.1406"/><rect fill="#F1F1F1" height="33.4063" style="stroke:#181818;stroke-width:1.5;" width="24" x="102.5" y="325.4375"/><text fill="#000000" font-family="sans-serif" font-size="12" lengthAdjust="spacing" textLength="4" x="112.5" y="346.3008">-</text><line style="stroke:#181818;stroke-width:1.5;" x1="92.5" x2="102.5" y1="390.5469" y2="390.5469"/><rect fill="#F1F1F1" height="33.4063" style="stroke:#181818;stroke-width:1.5;" width="24" x="102.5" y="373.8438"/><text fill="#000000" font-family="sans-serif" font-size="12" lengthAdjust="spacing" textLength="4" x="112.5" y="394.707">-</text><line style="stroke:#181818;stroke-width:1.5;" x1="92.5" x2="92.5" y1="213.625" y2="390.5469"/><line style="stroke:#181818;stroke-width:1.5;" x1="41" x2="51" y1="438.9531" y2="438.9531"/><rect fill="#F1F1F1" height="33.4063" style="stroke:#181818;stroke-width:1.5;" width="107" x="51" y="422.25"/><text fill="#000000" font-family="sans-serif" font-size="12" lengthAdjust="spacing" textLength="87" x="61" y="443.1133">Несущие стены</text><line style="stroke:#181818;stroke-width:1.5;" x1="104.5" x2="114.5" y1="487.3594" y2="487.3594"/><rect fill="#F1F1F1" height="33.4063" style="stroke:#181818;stroke-width:1.5;" width="24" x="114.5" y="470.6563"/><text fill="#000000" font-family="sans-serif" font-size="12" lengthAdjust="spacing" textLength="4" x="124.5" y="491.5195">-</text><line style="stroke:#181818;stroke-width:1.5;" x1="104.5" x2="114.5" y1="535.7656" y2="535.7656"/><rect fill="#F1F1F1" height="33.4063" style="stroke:#181818;stroke-width:1.5;" width="24" x="114.5" y="519.0625"/><text fill="#000000" font-family="sans-serif" font-size="12" lengthAdjust="spacing" textLength="4" x="124.5" y="539.9258">-</text><line style="stroke:#181818;stroke-width:1.5;" x1="104.5" x2="114.5" y1="584.1719" y2="584.1719"/><rect fill="#F1F1F1" height="33.4063" style="stroke:#181818;stroke-width:1.5;" width="24" x="114.5" y="567.4688"/><text fill="#000000" font-family="sans-serif" font-size="12" lengthAdjust="spacing" textLength="4" x="124.5" y="588.332">-</text><line style="stroke:#181818;stroke-width:1.5;" x1="104.5" x2="114.5" y1="632.5781" y2="632.5781"/><rect fill="#F1F1F1" height="33.4063" style="stroke:#181818;stroke-width:1.5;" width="24" x="114.5" y="615.875"/><text fill="#000000" font-family="sans-serif" font-size="12" lengthAdjust="spacing" textLength="4" x="124.5" y="636.7383">-</text><line style="stroke:#181818;stroke-width:1.5;" x1="104.5" x2="114.5" y1="680.9844" y2="680.9844"/><rect fill="#F1F1F1" height="33.4063" style="stroke:#181818;stroke-width:1.5;" width="24" x="114.5" y="664.2813"/><text fill="#000000" font-family="sans-serif" font-size="12" lengthAdjust="spacing" textLength="4" x="124.5" y="685.1445">-</text><line style="stroke:#181818;stroke-width:1.5;" x1="104.5" x2="114.5" y1="729.3906" y2="729.3906"/><rect fill="#F1F1F1" height="33.4063" style="stroke:#181818;stroke-width:1.5;" width="24" x="114.5" y="712.6875"/><text fill="#000000" font-family="sans-serif" font-size="12" lengthAdjust="spacing" textLength="4" x="124.5" y="733.5508">-</text><line style="stroke:#181818;stroke-width:1.5;" x1="104.5" x2="114.5" y1="777.7969" y2="777.7969"/><rect fill="#F1F1F1" height="33.4063" style="stroke:#181818;stroke-width:1.5;" width="24" x="114.5" y="761.0938"/><text fill="#000000" font-family="sans-serif" font-size="12" lengthAdjust="spacing" textLength="4" x="124.5" y="781.957">-</text><line style="stroke:#181818;stroke-width:1.5;" x1="104.5" x2="114.5" y1="826.2031" y2="826.2031"/><rect fill="#F1F1F1" height="33.4063" style="stroke:#181818;stroke-width:1.5;" width="24" x="114.5" y="809.5"/><text fill="#000000" font-family="sans-serif" font-size="12" lengthAdjust="spacing" textLength="4" x="124.5" y="830.3633">-</text><line style="stroke:#181818;stroke-width:1.5;" x1="104.5" x2="114.5" y1="874.6094" y2="874.6094"/><rect fill="#F1F1F1" height="33.4063" style="stroke:#181818;stroke-width:1.5;" width="24" x="114.5" y="857.9063"/><text fill="#000000" font-family="sans-serif" font-size="12" lengthAdjust="spacing" textLength="4" x="124.5" y="878.7695">-</text><line style="stroke:#181818;stroke-width:1.5;" x1="104.5" x2="114.5" y1="923.0156" y2="923.0156"/><rect fill="#F1F1F1" height="33.4063" style="stroke:#181818;stroke-width:1.5;" width="24" x="114.5" y="906.3125"/><text fill="#000000" font-family="sans-serif" font-size="12" lengthAdjust="spacing" textLength="4" x="124.5" y="927.1758">-</text><line style="stroke:#181818;stroke-width:1.5;" x1="104.5" x2="114.5" y1="971.4219" y2="971.4219"/><rect fill="#F1F1F1" height="33.4063" style="stroke:#181818;stroke-width:1.5;" width="24" x="114.5" y="954.7188"/><text fill="#000000" font-family="sans-serif" font-size="12" lengthAdjust="spacing" textLength="4" x="124.5" y="975.582">-</text><line style="stroke:#181818;stroke-width:1.5;" x1="104.5" x2="114.5" y1="1019.8281" y2="1019.8281"/><rect fill="#F1F1F1" height="33.4063" style="stroke:#181818;stroke-width:1.5;" width="24" x="114.5" y="1003.125"/><text fill="#000000" font-family="sans-serif" font-size="12" lengthAdjust="spacing" textLength="4" x="124.5" y="1023.9883">-</text><line style="stroke:#181818;stroke-width:1.5;" x1="104.5" x2="114.5" y1="1068.2344" y2="1068.2344"/><rect fill="#F1F1F1" height="33.4063" style="stroke:#181818;stroke-width:1.5;" width="24" x="114.5" y="1051.5313"/><text fill="#000000" font-family="sans-serif" font-size="12" lengthAdjust="spacing" textLength="4" x="124.5" y="1072.3945">-</text><line style="stroke:#181818;stroke-width:1.5;" x1="104.5" x2="114.5" y1="1116.6406" y2="1116.6406"/><rect fill="#F1F1F1" height="33.4063" style="stroke:#181818;stroke-width:1.5;" width="24" x="114.5" y="1099.9375"/><text fill="#000000" font-family="sans-serif" font-size="12" lengthAdjust="spacing" textLength="4" x="124.5" y="1120.8008">-</text><line style="stroke:#181818;stroke-width:1.5;" x1="104.5" x2="104.5" y1="455.6563" y2="1116.6406"/><line style="stroke:#181818;stroke-width:1.5;" x1="41" x2="51" y1="1165.0469" y2="1165.0469"/><rect fill="#F1F1F1" height="33.4063" style="stroke:#181818;stroke-width:1.5;" width="57" x="51" y="1148.3438"/><text fill="#000000" font-family="sans-serif" font-size="12" lengthAdjust="spacing" textLength="37" x="61" y="1169.207">Этажи</text><line style="stroke:#181818;stroke-width:1.5;" x1="79.5" x2="89.5" y1="1213.4531" y2="1213.4531"/><rect fill="#F1F1F1" height="33.4063" style="stroke:#181818;stroke-width:1.5;" width="92" x="89.5" y="1196.75"/><text fill="#000000" font-family="sans-serif" font-size="12" lengthAdjust="spacing" textLength="72" x="99.5" y="1217.6133">Технический</text><line style="stroke:#181818;stroke-width:1.5;" x1="79.5" x2="89.5" y1="1261.8594" y2="1261.8594"/><rect fill="#F1F1F1" height="33.4063" style="stroke:#181818;stroke-width:1.5;" width="59" x="89.5" y="1245.1563"/><text fill="#000000" font-family="sans-serif" font-size="12" lengthAdjust="spacing" textLength="39" x="99.5" y="1266.0195">Жилой</text><line style="stroke:#181818;stroke-width:1.5;" x1="79.5" x2="89.5" y1="1310.2656" y2="1310.2656"/><rect fill="#F1F1F1" height="33.4063" style="stroke:#181818;stroke-width:1.5;" width="87" x="89.5" y="1293.5625"/><text fill="#000000" font-family="sans-serif" font-size="12" lengthAdjust="spacing" textLength="67" x="99.5" y="1314.4258">Служебный</text><line style="stroke:#181818;stroke-width:1.5;" x1="79.5" x2="89.5" y1="1358.6719" y2="1358.6719"/><rect fill="#F1F1F1" height="33.4063" style="stroke:#181818;stroke-width:1.5;" width="24" x="89.5" y="1341.9688"/><text fill="#000000" font-family="sans-serif" font-size="12" lengthAdjust="spacing" textLength="4" x="99.5" y="1362.832">-</text><line style="stroke:#181818;stroke-width:1.5;" x1="79.5" x2="89.5" y1="1407.0781" y2="1407.0781"/><rect fill="#F1F1F1" height="33.4063" style="stroke:#181818;stroke-width:1.5;" width="24" x="89.5" y="1390.375"/><text fill="#000000" font-family="sans-serif" font-size="12" lengthAdjust="spacing" textLength="4" x="99.5" y="1411.2383">-</text><line style="stroke:#181818;stroke-width:1.5;" x1="79.5" x2="79.5" y1="1181.75" y2="1407.0781"/><line style="stroke:#181818;stroke-width:1.5;" x1="41" x2="51" y1="1455.4844" y2="1455.4844"/><rect fill="#F1F1F1" height="33.4063" style="stroke:#181818;stroke-width:1.5;" width="69" x="51" y="1438.7813"/><text fill="#000000" font-family="sans-serif" font-size="12" lengthAdjust="spacing" textLength="49" x="61" y="1459.6445">Комната</text><line style="stroke:#181818;stroke-width:1.5;" x1="41" x2="51" y1="1503.8906" y2="1503.8906"/><rect fill="#F1F1F1" height="33.4063" style="stroke:#181818;stroke-width:1.5;" width="158" x="51" y="1487.1875"/><text fill="#000000" font-family="sans-serif" font-size="12" lengthAdjust="spacing" textLength="138" x="61" y="1508.0508">Отделка и мебелировка</text><line style="stroke:#181818;stroke-width:1.5;" x1="41" x2="41" y1="116.8125" y2="1503.8906"/><line style="stroke:#181818;stroke-width:1.5;" x1="263" x2="263" y1="63.4063" y2="83.4063"/><rect fill="#F1F1F1" height="33.4063" style="stroke:#181818;stroke-width:1.5;" width="68" x="229" y="83.4063"/><text fill="#000000" font-family="sans-serif" font-size="12" lengthAdjust="spacing" textLength="48" x="239" y="104.2695">Человек</text><line style="stroke:#181818;stroke-width:1.5;" x1="263" x2="273" y1="148.5156" y2="148.5156"/><rect fill="#F1F1F1" height="33.4063" style="stroke:#181818;stroke-width:1.5;" width="56" x="273" y="131.8125"/><text fill="#000000" font-family="sans-serif" font-size="12" lengthAdjust="spacing" textLength="36" x="283" y="152.6758">Образ</text><line style="stroke:#181818;stroke-width:1.5;" x1="263" x2="273" y1="196.9219" y2="196.9219"/><rect fill="#F1F1F1" height="33.4063" style="stroke:#181818;stroke-width:1.5;" width="83" x="273" y="180.2188"/><text fill="#000000" font-family="sans-serif" font-size="12" lengthAdjust="spacing" textLength="63" x="283" y="201.082">Фундамент</text><line style="stroke:#181818;stroke-width:1.5;" x1="314.5" x2="324.5" y1="245.3281" y2="245.3281"/><rect fill="#F1F1F1" height="33.4063" style="stroke:#181818;stroke-width:1.5;" width="163" x="324.5" y="228.625"/><text fill="#000000" font-family="sans-serif" font-size="12" lengthAdjust="spacing" textLength="143" x="334.5" y="249.4883">Характер и темперамент</text><line style="stroke:#181818;stroke-width:1.5;" x1="314.5" x2="324.5" y1="293.7344" y2="293.7344"/><rect fill="#F1F1F1" height="33.4063" style="stroke:#181818;stroke-width:1.5;" width="195" x="324.5" y="277.0313"/><text fill="#000000" font-family="sans-serif" font-size="12" lengthAdjust="spacing" textLength="175" x="334.5" y="297.8945">Здоровье телесное и духовное</text><line style="stroke:#181818;stroke-width:1.5;" x1="422" x2="432" y1="342.1406" y2="342.1406"/><rect fill="#F1F1F1" height="33.4063" style="stroke:#181818;stroke-width:1.5;" width="111" x="432" y="325.4375"/><text fill="#000000" font-family="sans-serif" font-size="12" lengthAdjust="spacing" textLength="91" x="442" y="346.3008">Природный дар</text><line style="stroke:#181818;stroke-width:1.5;" x1="422" x2="432" y1="390.5469" y2="390.5469"/><rect fill="#F1F1F1" height="33.4063" style="stroke:#181818;stroke-width:1.5;" width="195" x="432" y="373.8438"/><text fill="#000000" font-family="sans-serif" font-size="12" lengthAdjust="spacing" textLength="175" x="442" y="394.707">Производная от образа жизни</text><line style="stroke:#181818;stroke-width:1.5;" x1="422" x2="422" y1="310.4375" y2="390.5469"/><line style="stroke:#181818;stroke-width:1.5;" x1="314.5" x2="314.5" y1="213.625" y2="293.7344"/><line style="stroke:#181818;stroke-width:1.5;" x1="263" x2="273" y1="438.9531" y2="438.9531"/><rect fill="#F1F1F1" height="33.4063" style="stroke:#181818;stroke-width:1.5;" width="107" x="273" y="422.25"/><text fill="#000000" font-family="sans-serif" font-size="12" lengthAdjust="spacing" textLength="87" x="283" y="443.1133">Несущие стены</text><line style="stroke:#181818;stroke-width:1.5;" x1="326.5" x2="336.5" y1="487.3594" y2="487.3594"/><rect fill="#F1F1F1" height="33.4063" style="stroke:#181818;stroke-width:1.5;" width="147" x="336.5" y="470.6563"/><text fill="#000000" font-family="sans-serif" font-size="12" lengthAdjust="spacing" textLength="127" x="346.5" y="491.5195">Сила воли и сила духа</text><line style="stroke:#181818;stroke-width:1.5;" x1="326.5" x2="336.5" y1="535.7656" y2="535.7656"/><rect fill="#F1F1F1" height="33.4063" style="stroke:#181818;stroke-width:1.5;" width="143" x="336.5" y="519.0625"/><text fill="#000000" font-family="sans-serif" font-size="12" lengthAdjust="spacing" textLength="123" x="346.5" y="539.9258">Физическое развитие</text><line style="stroke:#181818;stroke-width:1.5;" x1="408" x2="418" y1="584.1719" y2="584.1719"/><rect fill="#F1F1F1" height="33.4063" style="stroke:#181818;stroke-width:1.5;" width="50" x="418" y="567.4688"/><text fill="#000000" font-family="sans-serif" font-size="12" lengthAdjust="spacing" textLength="30" x="428" y="588.332">Сила</text><line style="stroke:#181818;stroke-width:1.5;" x1="408" x2="418" y1="632.5781" y2="632.5781"/><rect fill="#F1F1F1" height="33.4063" style="stroke:#181818;stroke-width:1.5;" width="72" x="418" y="615.875"/><text fill="#000000" font-family="sans-serif" font-size="12" lengthAdjust="spacing" textLength="52" x="428" y="636.7383">Ловкость</text><line style="stroke:#181818;stroke-width:1.5;" x1="408" x2="418" y1="680.9844" y2="680.9844"/><rect fill="#F1F1F1" height="33.4063" style="stroke:#181818;stroke-width:1.5;" width="102" x="418" y="664.2813"/><text fill="#000000" font-family="sans-serif" font-size="12" lengthAdjust="spacing" textLength="82" x="428" y="685.1445">Выносливость</text><line style="stroke:#181818;stroke-width:1.5;" x1="408" x2="418" y1="729.3906" y2="729.3906"/><rect fill="#F1F1F1" height="33.4063" style="stroke:#181818;stroke-width:1.5;" width="146" x="418" y="712.6875"/><text fill="#000000" font-family="sans-serif" font-size="12" lengthAdjust="spacing" textLength="126" x="428" y="733.5508">Двигательные навыки</text><line style="stroke:#181818;stroke-width:1.5;" x1="408" x2="408" y1="552.4688" y2="729.3906"/><line style="stroke:#181818;stroke-width:1.5;" x1="326.5" x2="336.5" y1="777.7969" y2="777.7969"/><rect fill="#F1F1F1" height="33.4063" style="stroke:#181818;stroke-width:1.5;" width="37" x="336.5" y="761.0938"/><text fill="#000000" font-family="sans-serif" font-size="12" lengthAdjust="spacing" textLength="17" x="346.5" y="781.957">Ум</text><line style="stroke:#181818;stroke-width:1.5;" x1="355" x2="365" y1="826.2031" y2="826.2031"/><rect fill="#F1F1F1" height="33.4063" style="stroke:#181818;stroke-width:1.5;" width="64" x="365" y="809.5"/><text fill="#000000" font-family="sans-serif" font-size="12" lengthAdjust="spacing" textLength="44" x="375" y="830.3633">Память</text><line style="stroke:#181818;stroke-width:1.5;" x1="355" x2="365" y1="874.6094" y2="874.6094"/><rect fill="#F1F1F1" height="33.4063" style="stroke:#181818;stroke-width:1.5;" width="82" x="365" y="857.9063"/><text fill="#000000" font-family="sans-serif" font-size="12" lengthAdjust="spacing" textLength="62" x="375" y="878.7695">Мышление</text><line style="stroke:#181818;stroke-width:1.5;" x1="406" x2="416" y1="923.0156" y2="923.0156"/><rect fill="#F1F1F1" height="33.4063" style="stroke:#181818;stroke-width:1.5;" width="199" x="416" y="906.3125"/><text fill="#000000" font-family="sans-serif" font-size="12" lengthAdjust="spacing" textLength="179" x="426" y="927.1758">восприятие окружающего мира</text><line style="stroke:#181818;stroke-width:1.5;" x1="406" x2="416" y1="971.4219" y2="971.4219"/><rect fill="#F1F1F1" height="33.4063" style="stroke:#181818;stroke-width:1.5;" width="234" x="416" y="954.7188"/><text fill="#000000" font-family="sans-serif" font-size="12" lengthAdjust="spacing" textLength="214" x="426" y="975.582">понимание — способность понимать</text><line style="stroke:#181818;stroke-width:1.5;" x1="406" x2="416" y1="1019.8281" y2="1019.8281"/><rect fill="#F1F1F1" height="33.4063" style="stroke:#181818;stroke-width:1.5;" width="217" x="416" y="1003.125"/><text fill="#000000" font-family="sans-serif" font-size="12" lengthAdjust="spacing" textLength="197" x="426" y="1023.9883">обобщение — нахождение общего</text><line style="stroke:#181818;stroke-width:1.5;" x1="406" x2="416" y1="1068.2344" y2="1068.2344"/><rect fill="#F1F1F1" height="33.4063" style="stroke:#181818;stroke-width:1.5;" width="211" x="416" y="1051.5313"/><text fill="#000000" font-family="sans-serif" font-size="12" lengthAdjust="spacing" textLength="191" x="426" y="1072.3945">познание — способность учиться</text><line style="stroke:#181818;stroke-width:1.5;" x1="406" x2="406" y1="891.3125" y2="1068.2344"/><line style="stroke:#181818;stroke-width:1.5;" x1="355" x2="365" y1="1116.6406" y2="1116.6406"/><rect fill="#F1F1F1" height="33.4063" style="stroke:#181818;stroke-width:1.5;" width="130" x="365" y="1099.9375"/><text fill="#000000" font-family="sans-serif" font-size="12" lengthAdjust="spacing" textLength="110" x="375" y="1120.8008">Принятие решений</text><line style="stroke:#181818;stroke-width:1.5;" x1="355" x2="355" y1="794.5" y2="1116.6406"/><line style="stroke:#181818;stroke-width:1.5;" x1="326.5" x2="326.5" y1="455.6563" y2="777.7969"/><line style="stroke:#181818;stroke-width:1.5;" x1="263" x2="273" y1="1165.0469" y2="1165.0469"/><rect fill="#F1F1F1" height="33.4063" style="stroke:#181818;stroke-width:1.5;" width="327" x="273" y="1148.3438"/><text fill="#000000" font-family="sans-serif" font-size="12" lengthAdjust="spacing" textLength="307" x="283" y="1169.207">Сферы деятельности (семья, учеба, работа, спорт, …)</text><line style="stroke:#181818;stroke-width:1.5;" x1="436.5" x2="446.5" y1="1213.4531" y2="1213.4531"/><rect fill="#F1F1F1" height="33.4063" style="stroke:#181818;stroke-width:1.5;" width="208" x="446.5" y="1196.75"/><text fill="#000000" font-family="sans-serif" font-size="12" lengthAdjust="spacing" textLength="188" x="456.5" y="1217.6133">Конкретная сфера деятельности</text><line style="stroke:#181818;stroke-width:1.5;" x1="550.5" x2="560.5" y1="1261.8594" y2="1261.8594"/><rect fill="#F1F1F1" height="33.4063" style="stroke:#181818;stroke-width:1.5;" width="348" x="560.5" y="1245.1563"/><text fill="#000000" font-family="sans-serif" font-size="12" lengthAdjust="spacing" textLength="328" x="570.5" y="1266.0195">Знания — отражают действительность в голове человека</text><line style="stroke:#181818;stroke-width:1.5;" x1="550.5" x2="560.5" y1="1310.2656" y2="1310.2656"/><rect fill="#F1F1F1" height="33.4063" style="stroke:#181818;stroke-width:1.5;" width="375" x="560.5" y="1293.5625"/><text fill="#000000" font-family="sans-serif" font-size="12" lengthAdjust="spacing" textLength="355" x="570.5" y="1314.4258">Умения — способность выполнять действия, которые знаешь</text><line style="stroke:#181818;stroke-width:1.5;" x1="550.5" x2="560.5" y1="1358.6719" y2="1358.6719"/><rect fill="#F1F1F1" height="33.4063" style="stroke:#181818;stroke-width:1.5;" width="290" x="560.5" y="1341.9688"/><text fill="#000000" font-family="sans-serif" font-size="12" lengthAdjust="spacing" textLength="270" x="570.5" y="1362.832">Навыки — выполняешь действия, не думая как</text><line style="stroke:#181818;stroke-width:1.5;" x1="550.5" x2="560.5" y1="1407.0781" y2="1407.0781"/><rect fill="#F1F1F1" height="33.4063" style="stroke:#181818;stroke-width:1.5;" width="231" x="560.5" y="1390.375"/><text fill="#000000" font-family="sans-serif" font-size="12" lengthAdjust="spacing" textLength="211" x="570.5" y="1411.2383">Привычка — делание на «автомате»</text><line style="stroke:#181818;stroke-width:1.5;" x1="550.5" x2="550.5" y1="1230.1563" y2="1407.0781"/><line style="stroke:#181818;stroke-width:1.5;" x1="436.5" x2="436.5" y1="1181.75" y2="1213.4531"/><line style="stroke:#181818;stroke-width:1.5;" x1="263" x2="273" y1="1455.4844" y2="1455.4844"/><rect fill="#F1F1F1" height="33.4063" style="stroke:#181818;stroke-width:1.5;" width="441" x="273" y="1438.7813"/><text fill="#000000" font-family="sans-serif" font-size="12" lengthAdjust="spacing" textLength="421" x="283" y="1459.6445">Направление в конкретной сфере деятельности (математика, медицина)</text><line style="stroke:#181818;stroke-width:1.5;" x1="263" x2="273" y1="1503.8906" y2="1503.8906"/><rect fill="#F1F1F1" height="33.4063" style="stroke:#181818;stroke-width:1.5;" width="149" x="273" y="1487.1875"/><text fill="#000000" font-family="sans-serif" font-size="12" lengthAdjust="spacing" textLength="129" x="283" y="1508.0508">Культура и воспитание</text><line style="stroke:#181818;stroke-width:1.5;" x1="263" x2="263" y1="116.8125" y2="1503.8906"/><line style="stroke:#181818;stroke-width:1.5;" x1="41" x2="263" y1="63.4063" y2="63.4063"/><rect fill="#F1F1F1" height="33.4063" style="stroke:#181818;stroke-width:1.5;" width="88" x="108" y="10"/><text fill="#000000" font-family="sans-serif" font-size="12" lengthAdjust="spacing" textLength="68" x="118" y="30.8633">Архитектура</text><line style="stroke:#181818;stroke-width:1.5;" x1="152" x2="152" y1="43.4063" y2="63.4063"/><!--MD5=[d74438122052097ac2c6de120d51cbcd]
@startwbs
'https://plantuml.com/wbs-diagram

* Архитектура
** Здание
*** Назначение
*** Фундамент
**** Бетон
**** Кирпичи
**** -
**** -
*** Несущие стены
**** -
**** -
**** -
**** -
**** -
**** -
**** -
**** -
**** -
**** -
**** -
**** -
**** -
**** -
*** Этажи
**** Технический
**** Жилой
**** Служебный
**** -
**** -
*** Комната
*** Отделка и мебелировка

** Человек
*** Образ
*** Фундамент
**** Характер и темперамент
**** Здоровье телесное и духовное
***** Природный дар
***** Производная от образа жизни
*** Несущие стены
**** Сила воли и сила духа
**** Физическое развитие
***** Сила
***** Ловкость
***** Выносливость
***** Двигательные навыки
**** Ум
***** Память
***** Мышление
****** восприятие окружающего мира
****** понимание — способность понимать
****** обобщение — нахождение общего
****** познание — способность учиться
***** Принятие решений
*** Сферы деятельности (семья, учеба, работа, спорт, …)
**** Конкретная сфера деятельности
***** Знания — отражают действительность в голове человека
***** Умения — способность выполнять действия, которые знаешь
***** Навыки — выполняешь действия, не думая как
***** Привычка — делание на «автомате»
*** Направление в конкретной сфере деятельности (математика, медицина)
*** Культура и воспитание
@endwbs

@startwbs

* Архитектура
** Здание
*** Назначение
*** Фундамент
**** Бетон
**** Кирпичи
**** -
**** -
*** Несущие стены
**** -
**** -
**** -
**** -
**** -
**** -
**** -
**** -
**** -
**** -
**** -
**** -
**** -
**** -
*** Этажи
**** Технический
**** Жилой
**** Служебный
**** -
**** -
*** Комната
*** Отделка и мебелировка

** Человек
*** Образ
*** Фундамент
**** Характер и темперамент
**** Здоровье телесное и духовное
***** Природный дар
***** Производная от образа жизни
*** Несущие стены
**** Сила воли и сила духа
**** Физическое развитие
***** Сила
***** Ловкость
***** Выносливость
***** Двигательные навыки
**** Ум
***** Память
***** Мышление
****** восприятие окружающего мира
****** понимание — способность понимать
****** обобщение — нахождение общего
****** познание — способность учиться
***** Принятие решений
*** Сферы деятельности (семья, учеба, работа, спорт, …)
**** Конкретная сфера деятельности
***** Знания — отражают действительность в голове человека
***** Умения — способность выполнять действия, которые знаешь
***** Навыки — выполняешь действия, не думая как
***** Привычка — делание на «автомате»
*** Направление в конкретной сфере деятельности (математика, медицина)
*** Культура и воспитание
@endwbs

PlantUML version 1.2022.12(Sun Oct 23 21:12:26 MSK 2022)
(GPL source distribution)
Java Runtime: OpenJDK Runtime Environment
JVM: OpenJDK 64-Bit Server VM
Default Encoding: UTF-8
Language: ru
Country: RU
--></g></svg>